<svg xmlns="http://www.w3.org/2000/svg" width="16.924" height="15.091" viewBox="0 0 16.924 15.091"><path d="M17.185,7.78c.011.165.011.33.011.494,0,5.034-3.49,10.835-9.869,10.835A9.178,9.178,0,0,1,2,17.4a6.635,6.635,0,0,0,5.145-1.58A3.531,3.531,0,0,1,3.9,13.179a4.033,4.033,0,0,0,.655.059,3.382,3.382,0,0,0,.914-.13A3.738,3.738,0,0,1,2.688,9.371V9.324a3.269,3.269,0,0,0,1.567.483A3.914,3.914,0,0,1,2.709,6.636a4.064,4.064,0,0,1,.472-1.921A9.6,9.6,0,0,0,10.334,8.7a4.734,4.734,0,0,1-.086-.873,3.649,3.649,0,0,1,3.469-3.808,3.324,3.324,0,0,1,2.534,1.2,6.493,6.493,0,0,0,2.2-.92,3.758,3.758,0,0,1-1.525,2.1,6.471,6.471,0,0,0,2-.59A7.884,7.884,0,0,1,17.185,7.78Z" transform="translate(-2 -4.019)" fill="#f8e1da"/></svg>