<svg xmlns="http://www.w3.org/2000/svg" width="19.522" height="15.21" viewBox="0 0 19.522 15.21"><path d="M14.491,4.26a9.953,9.953,0,0,0-.516,1.077,14.213,14.213,0,0,0-4.463,0A9.953,9.953,0,0,0,9,4.26,15.533,15.533,0,0,0,4.971,5.533,17.039,17.039,0,0,0,2.048,16.884a16.145,16.145,0,0,0,4.94,2.537,12.633,12.633,0,0,0,1.082-1.7A9.383,9.383,0,0,1,6.4,16.9a3.306,3.306,0,0,0,.409-.323,11.31,11.31,0,0,0,9.861,0q.2.176.409.323a10.54,10.54,0,0,1-1.666.823,12.166,12.166,0,0,0,1.052,1.743,15.989,15.989,0,0,0,4.93-2.537A16.93,16.93,0,0,0,18.476,5.582,15.622,15.622,0,0,0,14.491,4.26ZM8.508,14.593a1.9,1.9,0,0,1-1.754-1.959,1.887,1.887,0,0,1,1.754-1.959,1.887,1.887,0,0,1,1.754,1.959,1.887,1.887,0,0,1-1.754,1.959Zm6.47,0a1.9,1.9,0,0,1-1.754-1.959,1.887,1.887,0,0,1,1.754-1.959,1.877,1.877,0,0,1,1.754,1.959A1.877,1.877,0,0,1,14.978,14.593Z" transform="translate(-1.964 -4.26)" fill="#f8e1da"/></svg>